<svg width="100" height="100" viewBox="0 0 100 100" fill="none" xmlns="http://www.w3.org/2000/svg">
<rect width="100" height="100" rx="24" fill="black"/>
<path d="M27.1558 38.7388C26.3119 39.7184 24.9618 40.491 23.6116 40.3806C23.4428 39.0561 24.1038 37.6489 24.8774 36.7797C25.7212 35.7726 27.198 35.0552 28.3934 35C28.534 36.3796 27.9855 37.7317 27.1558 38.7388ZM28.3793 40.6427C26.4244 40.5324 24.7508 41.7326 23.8226 41.7326C22.8803 41.7326 21.4598 40.6979 19.9127 40.7255C17.9016 40.7531 16.031 41.8706 15.0044 43.6503C12.8948 47.2098 14.4559 52.48 16.4952 55.3773C17.4937 56.8121 18.6892 58.3849 20.2643 58.3297C21.7551 58.2745 22.3458 57.3777 24.146 57.3777C25.9603 57.3777 26.4807 58.3297 28.0559 58.3021C29.6873 58.2745 30.714 56.8673 31.7125 55.4324C32.8517 53.8045 33.3158 52.2179 33.344 52.1351C33.3158 52.1075 30.1936 50.9348 30.1655 47.403C30.1374 44.4505 32.6267 43.0433 32.7392 42.9605C31.3328 40.9186 29.1388 40.6979 28.3793 40.6427ZM39.6728 36.6418V58.1503H43.0763V50.7969H47.7878C52.0914 50.7969 55.1152 47.8996 55.1152 43.7055C55.1152 39.5114 52.1477 36.6418 47.9003 36.6418H39.6728ZM43.0763 39.4562H47.0002C49.9537 39.4562 51.6414 41.0014 51.6414 43.7193C51.6414 46.4372 49.9537 47.9962 46.9862 47.9962H43.0763V39.4562ZM61.3316 58.3159C63.4693 58.3159 65.4523 57.2536 66.3524 55.5704H66.4228V58.1503H69.5731V47.4443C69.5731 44.3402 67.0416 42.3397 63.1458 42.3397C59.5313 42.3397 56.8592 44.3677 56.7607 47.1546H59.8267C60.0798 45.8302 61.3316 44.961 63.0474 44.961C65.1289 44.961 66.2962 45.9129 66.2962 47.6651V48.8516L62.0488 49.0999C58.0968 49.3344 55.9591 50.921 55.9591 53.6803C55.9591 56.4672 58.1671 58.3159 61.3316 58.3159ZM62.2457 55.7636C60.4314 55.7636 59.2782 54.9082 59.2782 53.5975C59.2782 52.2455 60.3893 51.4591 62.5129 51.3349L66.2962 51.1004V52.3145C66.2962 54.3287 64.5522 55.7636 62.2457 55.7636ZM73.7783 64C77.0974 64 78.6585 62.7583 80.0228 58.9919L86 42.5466H82.5402L78.532 55.2531H78.4616L74.4534 42.5466H70.8952L76.6614 58.2055L76.352 59.1575C75.8316 60.7716 74.9878 61.3925 73.4829 61.3925C73.2157 61.3925 72.6954 61.3649 72.4844 61.3373V63.9172C72.6813 63.9724 73.5251 64 73.7783 64Z" fill="white"/>
</svg>
