<svg width="100" height="100" viewBox="0 0 100 100" fill="none" xmlns="http://www.w3.org/2000/svg">
<rect width="100" height="100" rx="24" fill="#F4F4F4"/>
<path d="M47.3948 49.6252V58.3973H44.5082V36.7029H52.0134C53.8416 36.7029 55.5736 37.3631 56.9207 38.5894C58.2678 39.7212 58.9413 41.4191 58.9413 43.2112C58.9413 45.0034 58.2678 46.6069 56.9207 47.8331C55.5736 49.0593 53.9378 49.7196 52.0134 49.7196L47.3948 49.6252ZM47.3948 39.3439V46.8898H52.2058C53.2643 46.8898 54.3227 46.5126 54.9962 45.758C56.5358 44.3431 56.5358 41.985 55.0925 40.5702L54.9962 40.4758C54.2265 39.7212 53.2643 39.2496 52.2058 39.3439H47.3948Z" fill="#5F6368"/>
<path d="M65.5805 43.1169C67.6974 43.1169 69.3332 43.6828 70.584 44.8147C71.8349 45.9466 72.4122 47.4558 72.4122 49.3423V58.3973H69.718V56.3222H69.6218C68.4672 58.02 66.8314 58.869 64.907 58.869C63.2712 58.869 61.8279 58.3973 60.6733 57.4541C59.6148 56.5109 58.9413 55.1903 58.9413 53.7755C58.9413 52.2663 59.5186 51.0401 60.6733 50.0968C61.8279 49.1536 63.4637 48.7763 65.3881 48.7763C67.1201 48.7763 68.4672 49.0593 69.5256 49.7195V49.0593C69.5256 48.116 69.1407 47.1728 68.3709 46.6069C67.6012 45.9466 66.639 45.5693 65.5805 45.5693C63.9448 45.5693 62.6939 46.2296 61.8279 47.5501L59.3262 46.0409C60.8657 44.0601 62.8864 43.1169 65.5805 43.1169ZM61.9241 53.8698C61.9241 54.6244 62.309 55.2847 62.8864 55.6619C63.5599 56.1336 64.3297 56.4165 65.0994 56.4165C66.2541 56.4165 67.4087 55.9449 68.2747 55.096C69.2369 54.2471 69.718 53.2095 69.718 52.0776C68.8521 51.4174 67.6012 51.0401 65.9654 51.0401C64.8108 51.0401 63.8486 51.3231 63.0788 51.889C62.309 52.3606 61.9241 53.0209 61.9241 53.8698Z" fill="#5F6368"/>
<path d="M88 43.5885L78.4741 65H75.5875L79.1477 57.5484L72.8933 43.6828H75.9724L80.4948 54.3414H80.591L85.0172 43.6828H88V43.5885Z" fill="#5F6368"/>
<path d="M35.943 47.7388C35.943 46.8898 35.8468 46.0409 35.7506 45.192H23.723V50.0025H30.5546C30.266 51.5117 29.4 52.9266 28.0529 53.7755V56.8882H32.1904C34.5959 54.7187 35.943 51.5117 35.943 47.7388Z" fill="#4285F4"/>
<path d="M23.7222 59.9066C27.1862 59.9066 30.0735 58.7746 32.1904 56.8882L28.0529 53.7755C26.8982 54.5301 25.4542 55.0017 23.7222 55.0017C20.4507 55.0017 17.5641 52.8323 16.6019 49.8139H12.3681V53.0209C14.5812 57.2655 18.9112 59.9066 23.7222 59.9066Z" fill="#34A853"/>
<path d="M16.6049 49.8139C16.0275 48.3047 16.0275 46.6069 16.6049 45.0034V41.7964H12.3711C10.543 45.2864 10.543 49.4366 12.3711 53.0209L16.6049 49.8139Z" fill="#FBBC04"/>
<path d="M23.7237 39.9099C25.5519 39.9099 27.2839 40.5702 28.631 41.7964L32.2874 38.2121C29.9781 36.137 26.899 34.9108 23.8199 35.0051C19.0089 35.0051 14.5827 37.6461 12.4659 41.8907L16.6996 45.0977C17.5656 42.0794 20.4522 39.9099 23.7237 39.9099Z" fill="#EA4335"/>
</svg>
