<svg width="408" height="187" viewBox="0 0 408 187" fill="none" xmlns="http://www.w3.org/2000/svg">
<g clip-path="url(#clip0_3_2152)">
<path d="M0 8C0 3.58172 3.58172 0 8 0H400C404.418 0 408 3.58172 408 8V187H0V8Z" fill="#BD3C3C"/>
<path d="M400 0H8C3.58172 0 0 3.58172 0 8V179C0 183.418 3.58172 187 8 187H400C404.418 187 408 183.418 408 179V8C408 3.58172 404.418 0 400 0Z" fill="#E0D0FF"/>
<path d="M428 -8H-8V396.757H428V-8Z" fill="#E0D0FF"/>
<path d="M225.364 54H163.636C153.896 54 146 61.8856 146 71.6131V133.259C146 142.986 153.896 150.872 163.636 150.872H225.364C235.104 150.872 243 142.986 243 133.259V71.6131C243 61.8856 235.104 54 225.364 54Z" fill="white"/>
<path d="M221.215 125.812V120.619C221.215 115.778 217.905 111.712 213.425 110.559M204.337 79.8259C208.143 81.3684 210.828 85.0987 210.828 89.4589C210.828 93.8169 208.143 97.5494 204.337 99.0896M208.232 125.812C208.232 120.973 208.232 118.551 207.441 116.644C206.387 114.098 204.365 112.077 201.82 111.022C199.911 110.232 197.491 110.232 192.651 110.232H184.861C180.022 110.232 177.602 110.232 175.693 111.022C173.148 112.077 171.126 114.098 170.072 116.644C169.281 118.551 169.281 120.973 169.281 125.812M199.143 89.4589C199.143 95.1946 194.493 99.8442 188.756 99.8442C183.02 99.8442 178.37 95.1946 178.37 89.4589C178.37 83.721 183.02 79.0714 188.756 79.0714C194.493 79.0714 199.143 83.721 199.143 89.4589Z" stroke="url(#paint0_linear_3_2152)" stroke-width="4.45146" stroke-linecap="round" stroke-linejoin="round"/>
</g>
<defs>
<linearGradient id="paint0_linear_3_2152" x1="178.184" y1="81.2972" x2="214.909" y2="125.812" gradientUnits="userSpaceOnUse">
<stop stop-color="#01C3FF"/>
<stop offset="1" stop-color="#5D1CF1"/>
</linearGradient>
<clipPath id="clip0_3_2152">
<path d="M0 8C0 3.58172 3.58172 0 8 0H400C404.418 0 408 3.58172 408 8V187H0V8Z" fill="white"/>
</clipPath>
</defs>
</svg>
