<svg width="408" height="187" viewBox="0 0 408 187" fill="none" xmlns="http://www.w3.org/2000/svg">
<g clip-path="url(#clip0_3_2136)">
<path d="M0 8C0 3.58172 3.58172 0 8 0H400C404.418 0 408 3.58172 408 8V187H0V8Z" fill="#BD3C3C"/>
<path d="M400 0H8C3.58172 0 0 3.58172 0 8V179C0 183.418 3.58172 187 8 187H400C404.418 187 408 183.418 408 179V8C408 3.58172 404.418 0 400 0Z" fill="#AFE8F4"/>
<path d="M428 -8H-8V396.757H428V-8Z" fill="#AFE8F4"/>
<rect x="67" y="31" width="274" height="185" rx="7" fill="white"/>
<line x1="90" y1="70.5307" x2="297" y2="70.5307" stroke="#E7E7E7" stroke-width="0.938537"/>
<path d="M129.395 52.8934C129.362 52.5557 129.218 52.2934 128.964 52.1065C128.71 51.9195 128.365 51.8261 127.93 51.8261C127.634 51.8261 127.385 51.8679 127.181 51.9516C126.977 52.0325 126.821 52.1456 126.712 52.2906C126.606 52.4357 126.553 52.6004 126.553 52.7845C126.548 52.938 126.58 53.0719 126.649 53.1863C126.722 53.3007 126.821 53.3998 126.947 53.4835C127.072 53.5644 127.217 53.6356 127.382 53.697C127.547 53.7556 127.722 53.8058 127.909 53.8477L128.679 54.0318C129.053 54.1155 129.397 54.2271 129.709 54.3667C130.022 54.5062 130.292 54.6778 130.521 54.8815C130.75 55.0852 130.927 55.3251 131.053 55.6014C131.181 55.8776 131.246 56.1943 131.249 56.5515C131.246 57.0761 131.113 57.5309 130.847 57.916C130.585 58.2982 130.206 58.5954 129.709 58.8075C129.215 59.0167 128.619 59.1214 127.922 59.1214C127.23 59.1214 126.627 59.0153 126.114 58.8033C125.603 58.5912 125.204 58.2773 124.917 57.8615C124.632 57.443 124.483 56.9254 124.469 56.3087H126.222C126.242 56.5961 126.324 56.8361 126.469 57.0286C126.617 57.2184 126.814 57.3621 127.06 57.4597C127.308 57.5546 127.588 57.602 127.901 57.602C128.208 57.602 128.474 57.5574 128.7 57.4681C128.929 57.3788 129.106 57.2546 129.232 57.0956C129.357 56.9365 129.42 56.7538 129.42 56.5473C129.42 56.3548 129.363 56.1929 129.249 56.0618C129.137 55.9306 128.972 55.819 128.755 55.7269C128.54 55.6349 128.276 55.5512 127.964 55.4758L127.03 55.2414C126.308 55.0656 125.737 54.7908 125.318 54.4169C124.9 54.043 124.692 53.5393 124.695 52.9059C124.692 52.3869 124.83 51.9335 125.109 51.5456C125.391 51.1578 125.777 50.855 126.269 50.6374C126.76 50.4197 127.318 50.3109 127.943 50.3109C128.579 50.3109 129.134 50.4197 129.609 50.6374C130.086 50.855 130.457 51.1578 130.722 51.5456C130.987 51.9335 131.124 52.3827 131.132 52.8934H129.395ZM135.854 52.5711V53.9104H131.983V52.5711H135.854ZM132.862 51.0308H134.645V57.0244C134.645 57.1891 134.67 57.3174 134.72 57.4095C134.77 57.4988 134.84 57.5616 134.929 57.5979C135.021 57.6341 135.127 57.6523 135.247 57.6523C135.331 57.6523 135.415 57.6453 135.499 57.6313C135.582 57.6146 135.646 57.602 135.691 57.5937L135.972 58.9205C135.882 58.9484 135.757 58.9805 135.595 59.0167C135.433 59.0558 135.236 59.0795 135.005 59.0879C134.575 59.1046 134.198 59.0474 133.875 58.9163C133.554 58.7851 133.304 58.5815 133.125 58.3052C132.947 58.029 132.859 57.6802 132.862 57.2588V51.0308ZM138.849 59.1214C138.439 59.1214 138.073 59.0502 137.752 58.9079C137.432 58.7628 137.178 58.5494 136.991 58.2675C136.807 57.9829 136.714 57.6286 136.714 57.2044C136.714 56.8473 136.78 56.5473 136.911 56.3045C137.042 56.0618 137.221 55.8665 137.447 55.7186C137.673 55.5707 137.93 55.4591 138.217 55.3837C138.507 55.3084 138.811 55.2554 139.13 55.2247C139.503 55.1856 139.805 55.1493 140.034 55.1159C140.262 55.0796 140.428 55.0266 140.532 54.9568C140.635 54.8871 140.687 54.7838 140.687 54.6471V54.622C140.687 54.3569 140.603 54.1518 140.435 54.0067C140.271 53.8616 140.036 53.7891 139.732 53.7891C139.411 53.7891 139.156 53.8602 138.966 54.0025C138.777 54.142 138.651 54.3178 138.59 54.5299L136.941 54.396C137.024 54.0053 137.189 53.6677 137.434 53.3831C137.68 53.0957 137.997 52.8752 138.385 52.7218C138.775 52.5655 139.227 52.4874 139.741 52.4874C140.098 52.4874 140.44 52.5292 140.766 52.6129C141.095 52.6966 141.387 52.8264 141.641 53.0022C141.898 53.178 142.1 53.404 142.248 53.6802C142.396 53.9537 142.47 54.2815 142.47 54.6638V59H140.779V58.1085H140.728C140.625 58.3094 140.487 58.4866 140.314 58.64C140.141 58.7907 139.933 58.9093 139.69 58.9958C139.448 59.0795 139.167 59.1214 138.849 59.1214ZM139.36 57.8908C139.622 57.8908 139.854 57.8392 140.055 57.736C140.255 57.6299 140.413 57.4876 140.527 57.3091C140.642 57.1305 140.699 56.9282 140.699 56.7022V56.0199C140.643 56.0562 140.567 56.0897 140.469 56.1204C140.374 56.1483 140.267 56.1748 140.147 56.1999C140.027 56.2222 139.907 56.2432 139.787 56.2627C139.667 56.2794 139.558 56.2948 139.46 56.3087C139.251 56.3394 139.068 56.3882 138.912 56.4552C138.756 56.5222 138.634 56.6129 138.548 56.7273C138.461 56.8389 138.418 56.9784 138.418 57.1458C138.418 57.3886 138.506 57.5741 138.682 57.7025C138.86 57.8281 139.086 57.8908 139.36 57.8908ZM145.636 55.2833V59H143.853V52.5711H145.552V53.7053H145.628C145.77 53.3314 146.008 53.0357 146.343 52.818C146.678 52.5976 147.084 52.4874 147.561 52.4874C148.008 52.4874 148.397 52.585 148.729 52.7804C149.061 52.9757 149.319 53.2547 149.503 53.6175C149.687 53.9774 149.78 54.4071 149.78 54.9066V59H147.997V55.2247C147.999 54.8312 147.899 54.5243 147.695 54.3039C147.491 54.0806 147.211 53.969 146.854 53.969C146.614 53.969 146.402 54.0207 146.218 54.1239C146.036 54.2271 145.894 54.3778 145.791 54.5759C145.69 54.7713 145.639 55.007 145.636 55.2833ZM153.554 59.1046C153.065 59.1046 152.623 58.9791 152.227 58.7279C151.834 58.474 151.521 58.1015 151.289 57.6104C151.061 57.1165 150.946 56.511 150.946 55.7939C150.946 55.0573 151.065 54.4448 151.302 53.9565C151.539 53.4654 151.854 53.0984 152.248 52.8557C152.644 52.6101 153.078 52.4874 153.55 52.4874C153.91 52.4874 154.21 52.5488 154.449 52.6715C154.692 52.7915 154.888 52.9422 155.035 53.1236C155.186 53.3021 155.301 53.4779 155.379 53.6509H155.433V50.4281H157.212V59H155.454V57.9704H155.379C155.295 58.1489 155.176 58.3261 155.023 58.5019C154.872 58.6749 154.676 58.8186 154.433 58.933C154.193 59.0474 153.9 59.1046 153.554 59.1046ZM154.119 57.6858C154.406 57.6858 154.649 57.6076 154.847 57.4514C155.048 57.2923 155.201 57.0705 155.308 56.7859C155.416 56.5013 155.471 56.1678 155.471 55.7855C155.471 55.4033 155.418 55.0712 155.312 54.7894C155.206 54.5076 155.052 54.2899 154.851 54.1365C154.65 53.983 154.406 53.9062 154.119 53.9062C153.826 53.9062 153.579 53.9858 153.378 54.1448C153.177 54.3039 153.025 54.5243 152.922 54.8061C152.819 55.088 152.767 55.4144 152.767 55.7855C152.767 56.1594 152.819 56.4901 152.922 56.7775C153.028 57.0621 153.18 57.2853 153.378 57.4472C153.579 57.6062 153.826 57.6858 154.119 57.6858ZM160.511 59.1214C160.101 59.1214 159.735 59.0502 159.415 58.9079C159.094 58.7628 158.84 58.5494 158.653 58.2675C158.469 57.9829 158.377 57.6286 158.377 57.2044C158.377 56.8473 158.442 56.5473 158.573 56.3045C158.704 56.0618 158.883 55.8665 159.109 55.7186C159.335 55.5707 159.592 55.4591 159.879 55.3837C160.169 55.3084 160.473 55.2554 160.792 55.2247C161.165 55.1856 161.467 55.1493 161.696 55.1159C161.924 55.0796 162.09 55.0266 162.194 54.9568C162.297 54.8871 162.349 54.7838 162.349 54.6471V54.622C162.349 54.3569 162.265 54.1518 162.097 54.0067C161.933 53.8616 161.698 53.7891 161.394 53.7891C161.073 53.7891 160.818 53.8602 160.628 54.0025C160.439 54.142 160.313 54.3178 160.252 54.5299L158.603 54.396C158.686 54.0053 158.851 53.6677 159.096 53.3831C159.342 53.0957 159.659 52.8752 160.047 52.7218C160.437 52.5655 160.889 52.4874 161.403 52.4874C161.76 52.4874 162.102 52.5292 162.428 52.6129C162.757 52.6966 163.049 52.8264 163.303 53.0022C163.56 53.178 163.762 53.404 163.91 53.6802C164.058 53.9537 164.132 54.2815 164.132 54.6638V59H162.441V58.1085H162.39C162.287 58.3094 162.149 58.4866 161.976 58.64C161.803 58.7907 161.595 58.9093 161.352 58.9958C161.11 59.0795 160.829 59.1214 160.511 59.1214ZM161.022 57.8908C161.284 57.8908 161.516 57.8392 161.717 57.736C161.917 57.6299 162.075 57.4876 162.19 57.3091C162.304 57.1305 162.361 56.9282 162.361 56.7022V56.0199C162.305 56.0562 162.229 56.0897 162.131 56.1204C162.036 56.1483 161.929 56.1748 161.809 56.1999C161.689 56.2222 161.569 56.2432 161.449 56.2627C161.329 56.2794 161.22 56.2948 161.122 56.3087C160.913 56.3394 160.73 56.3882 160.574 56.4552C160.418 56.5222 160.296 56.6129 160.21 56.7273C160.123 56.8389 160.08 56.9784 160.08 57.1458C160.08 57.3886 160.168 57.5741 160.344 57.7025C160.522 57.8281 160.748 57.8908 161.022 57.8908ZM165.515 59V52.5711H167.244V53.6928H167.31C167.428 53.2938 167.624 52.9924 167.901 52.7887C168.177 52.5822 168.495 52.479 168.855 52.479C168.944 52.479 169.04 52.4846 169.144 52.4957C169.247 52.5069 169.338 52.5222 169.416 52.5418V54.1239C169.332 54.0988 169.216 54.0765 169.068 54.0569C168.921 54.0374 168.785 54.0276 168.662 54.0276C168.4 54.0276 168.166 54.0848 167.959 54.1992C167.756 54.3108 167.594 54.4671 167.474 54.668C167.357 54.8689 167.298 55.1005 167.298 55.3628V59H165.515ZM172.407 59.1046C171.919 59.1046 171.477 58.9791 171.081 58.7279C170.687 58.474 170.375 58.1015 170.143 57.6104C169.914 57.1165 169.8 56.511 169.8 55.7939C169.8 55.0573 169.918 54.4448 170.156 53.9565C170.393 53.4654 170.708 53.0984 171.101 52.8557C171.498 52.6101 171.932 52.4874 172.403 52.4874C172.763 52.4874 173.063 52.5488 173.303 52.6715C173.546 52.7915 173.741 52.9422 173.889 53.1236C174.04 53.3021 174.154 53.4779 174.232 53.6509H174.287V50.4281H176.065V59H174.308V57.9704H174.232C174.149 58.1489 174.03 58.3261 173.876 58.5019C173.726 58.6749 173.529 58.8186 173.286 58.933C173.046 59.0474 172.753 59.1046 172.407 59.1046ZM172.972 57.6858C173.26 57.6858 173.503 57.6076 173.701 57.4514C173.902 57.2923 174.055 57.0705 174.161 56.7859C174.27 56.5013 174.324 56.1678 174.324 55.7855C174.324 55.4033 174.271 55.0712 174.165 54.7894C174.059 54.5076 173.906 54.2899 173.705 54.1365C173.504 53.983 173.26 53.9062 172.972 53.9062C172.679 53.9062 172.432 53.9858 172.232 54.1448C172.031 54.3039 171.879 54.5243 171.775 54.8061C171.672 55.088 171.62 55.4144 171.62 55.7855C171.62 56.1594 171.672 56.4901 171.775 56.7775C171.881 57.0621 172.033 57.2853 172.232 57.4472C172.432 57.6062 172.679 57.6858 172.972 57.6858ZM187.856 53.4291H186.023C185.989 53.1919 185.921 52.9813 185.818 52.7971C185.714 52.6101 185.582 52.4511 185.42 52.3199C185.258 52.1888 185.071 52.0883 184.859 52.0186C184.65 51.9488 184.423 51.914 184.177 51.914C183.733 51.914 183.347 52.0242 183.018 52.2446C182.688 52.4623 182.433 52.7804 182.252 53.1989C182.07 53.6147 181.98 54.1197 181.98 54.7141C181.98 55.3251 182.07 55.8386 182.252 56.2543C182.436 56.6701 182.693 56.984 183.022 57.1961C183.351 57.4081 183.732 57.5141 184.164 57.5141C184.407 57.5141 184.632 57.4821 184.838 57.4179C185.048 57.3537 185.233 57.2602 185.395 57.1375C185.557 57.0119 185.691 56.8598 185.797 56.6812C185.906 56.5027 185.981 56.299 186.023 56.0702L187.856 56.0785C187.809 56.472 187.69 56.8514 187.5 57.217C187.313 57.5797 187.061 57.9048 186.743 58.1922C186.427 58.4768 186.051 58.7028 185.613 58.8702C185.177 59.0349 184.685 59.1172 184.135 59.1172C183.371 59.1172 182.687 58.9442 182.084 58.5982C181.484 58.2522 181.01 57.7513 180.661 57.0956C180.315 56.4399 180.142 55.646 180.142 54.7141C180.142 53.7793 180.318 52.984 180.67 52.3283C181.021 51.6726 181.498 51.1731 182.101 50.8299C182.704 50.4839 183.382 50.3109 184.135 50.3109C184.632 50.3109 185.092 50.3807 185.516 50.5202C185.943 50.6597 186.321 50.8634 186.651 51.1313C186.98 51.3963 187.248 51.7214 187.454 52.1065C187.664 52.4916 187.797 52.9324 187.856 53.4291ZM189.122 59V52.5711H190.851V53.6928H190.918C191.035 53.2938 191.232 52.9924 191.508 52.7887C191.784 52.5822 192.102 52.479 192.462 52.479C192.551 52.479 192.648 52.4846 192.751 52.4957C192.854 52.5069 192.945 52.5222 193.023 52.5418V54.1239C192.939 54.0988 192.824 54.0765 192.676 54.0569C192.528 54.0374 192.392 54.0276 192.27 54.0276C192.007 54.0276 191.773 54.0848 191.566 54.1992C191.363 54.3108 191.201 54.4671 191.081 54.668C190.964 54.8689 190.905 55.1005 190.905 55.3628V59H189.122ZM195.241 61.4108C195.015 61.4108 194.803 61.3927 194.605 61.3564C194.41 61.323 194.248 61.2797 194.12 61.2267L194.521 59.8957C194.731 59.9599 194.919 59.9948 195.086 60.0003C195.257 60.0059 195.403 59.9668 195.526 59.8831C195.652 59.7994 195.753 59.6571 195.832 59.4562L195.936 59.1842L193.63 52.5711H195.505L196.836 57.2923H196.903L198.247 52.5711H200.134L197.635 59.6948C197.515 60.0408 197.352 60.3421 197.146 60.5989C196.942 60.8584 196.684 61.0579 196.371 61.1974C196.059 61.3397 195.682 61.4108 195.241 61.4108ZM201.047 61.4108V52.5711H202.805V53.6509H202.884C202.962 53.4779 203.075 53.3021 203.223 53.1236C203.374 52.9422 203.569 52.7915 203.809 52.6715C204.052 52.5488 204.353 52.4874 204.713 52.4874C205.182 52.4874 205.614 52.6101 206.011 52.8557C206.407 53.0984 206.724 53.4654 206.961 53.9565C207.198 54.4448 207.317 55.0573 207.317 55.7939C207.317 56.511 207.201 57.1165 206.969 57.6104C206.74 58.1015 206.428 58.474 206.032 58.7279C205.638 58.9791 205.197 59.1046 204.709 59.1046C204.363 59.1046 204.069 59.0474 203.826 58.933C203.586 58.8186 203.389 58.6749 203.236 58.5019C203.082 58.3261 202.965 58.1489 202.884 57.9704H202.83V61.4108H201.047ZM202.792 55.7855C202.792 56.1678 202.845 56.5013 202.951 56.7859C203.057 57.0705 203.211 57.2923 203.411 57.4514C203.612 57.6076 203.856 57.6858 204.144 57.6858C204.434 57.6858 204.68 57.6062 204.881 57.4472C205.081 57.2853 205.234 57.0621 205.337 56.7775C205.443 56.4901 205.496 56.1594 205.496 55.7855C205.496 55.4144 205.444 55.088 205.341 54.8061C205.238 54.5243 205.086 54.3039 204.885 54.1448C204.684 53.9858 204.437 53.9062 204.144 53.9062C203.854 53.9062 203.608 53.983 203.407 54.1365C203.209 54.2899 203.057 54.5076 202.951 54.7894C202.845 55.0712 202.792 55.4033 202.792 55.7855ZM211.925 52.5711V53.9104H208.053V52.5711H211.925ZM208.932 51.0308H210.715V57.0244C210.715 57.1891 210.74 57.3174 210.79 57.4095C210.841 57.4988 210.91 57.5616 211 57.5979C211.092 57.6341 211.198 57.6523 211.318 57.6523C211.402 57.6523 211.485 57.6453 211.569 57.6313C211.653 57.6146 211.717 57.602 211.762 57.5937L212.042 58.9205C211.953 58.9484 211.827 58.9805 211.665 59.0167C211.503 59.0558 211.307 59.0795 211.075 59.0879C210.645 59.1046 210.269 59.0474 209.945 58.9163C209.624 58.7851 209.374 58.5815 209.196 58.3052C209.017 58.029 208.929 57.6802 208.932 57.2588V51.0308ZM215.922 59.1256C215.272 59.1256 214.709 58.9874 214.235 58.7112C213.764 58.4322 213.399 58.0443 213.143 57.5476C212.886 57.0482 212.758 56.4692 212.758 55.8107C212.758 55.1466 212.886 54.5662 213.143 54.0695C213.399 53.57 213.764 53.1822 214.235 52.9059C214.709 52.6269 215.272 52.4874 215.922 52.4874C216.572 52.4874 217.133 52.6269 217.604 52.9059C218.079 53.1822 218.444 53.57 218.701 54.0695C218.958 54.5662 219.086 55.1466 219.086 55.8107C219.086 56.4692 218.958 57.0482 218.701 57.5476C218.444 58.0443 218.079 58.4322 217.604 58.7112C217.133 58.9874 216.572 59.1256 215.922 59.1256ZM215.93 57.7444C216.226 57.7444 216.473 57.6606 216.671 57.4932C216.869 57.323 217.018 57.0914 217.119 56.7984C217.222 56.5054 217.274 56.172 217.274 55.7981C217.274 55.4242 217.222 55.0907 217.119 54.7978C217.018 54.5048 216.869 54.2732 216.671 54.103C216.473 53.9328 216.226 53.8477 215.93 53.8477C215.632 53.8477 215.381 53.9328 215.177 54.103C214.976 54.2732 214.824 54.5048 214.721 54.7978C214.62 55.0907 214.57 55.4242 214.57 55.7981C214.57 56.172 214.62 56.5054 214.721 56.7984C214.824 57.0914 214.976 57.323 215.177 57.4932C215.381 57.6606 215.632 57.7444 215.93 57.7444ZM224.484 59H222.542L225.501 50.4281H227.837L230.792 59H228.85L226.703 52.3869H226.636L224.484 59ZM224.363 55.6307H228.95V57.0454H224.363V55.6307ZM234.396 59.1256C233.737 59.1256 233.171 58.986 232.696 58.707C232.225 58.4252 231.862 58.0345 231.608 57.5351C231.357 57.0356 231.231 56.4608 231.231 55.8107C231.231 55.1521 231.358 54.5745 231.612 54.0779C231.869 53.5784 232.233 53.1891 232.705 52.9101C233.176 52.6283 233.737 52.4874 234.387 52.4874C234.948 52.4874 235.439 52.5892 235.861 52.7929C236.282 52.9966 236.615 53.2826 236.861 53.6509C237.106 54.0193 237.242 54.4518 237.267 54.9484H235.584C235.537 54.6276 235.411 54.3694 235.208 54.1741C235.007 53.976 234.743 53.877 234.417 53.877C234.14 53.877 233.899 53.9523 233.692 54.103C233.489 54.2509 233.33 54.4671 233.215 54.7517C233.101 55.0363 233.044 55.3809 233.044 55.7855C233.044 56.1957 233.1 56.5445 233.211 56.8319C233.326 57.1193 233.486 57.3384 233.692 57.489C233.899 57.6397 234.14 57.7151 234.417 57.7151C234.62 57.7151 234.803 57.6732 234.965 57.5895C235.129 57.5058 235.265 57.3844 235.371 57.2253C235.48 57.0635 235.551 56.8696 235.584 56.6436H237.267C237.239 57.1347 237.105 57.5672 236.865 57.9411C236.628 58.3122 236.3 58.6024 235.881 58.8117C235.463 59.0209 234.968 59.1256 234.396 59.1256ZM241.313 59.1256C240.655 59.1256 240.088 58.986 239.614 58.707C239.142 58.4252 238.78 58.0345 238.526 57.5351C238.275 57.0356 238.149 56.4608 238.149 55.8107C238.149 55.1521 238.276 54.5745 238.53 54.0779C238.787 53.5784 239.151 53.1891 239.622 52.9101C240.094 52.6283 240.655 52.4874 241.305 52.4874C241.866 52.4874 242.357 52.5892 242.778 52.7929C243.199 52.9966 243.533 53.2826 243.778 53.6509C244.024 54.0193 244.159 54.4518 244.184 54.9484H242.502C242.454 54.6276 242.329 54.3694 242.125 54.1741C241.924 53.976 241.661 53.877 241.334 53.877C241.058 53.877 240.817 53.9523 240.61 54.103C240.406 54.2509 240.247 54.4671 240.133 54.7517C240.019 55.0363 239.961 55.3809 239.961 55.7855C239.961 56.1957 240.017 56.5445 240.129 56.8319C240.243 57.1193 240.404 57.3384 240.61 57.489C240.817 57.6397 241.058 57.7151 241.334 57.7151C241.538 57.7151 241.721 57.6732 241.882 57.5895C242.047 57.5058 242.182 57.3844 242.288 57.2253C242.397 57.0635 242.468 56.8696 242.502 56.6436H244.184C244.157 57.1347 244.023 57.5672 243.783 57.9411C243.545 58.3122 243.218 58.6024 242.799 58.8117C242.381 59.0209 241.885 59.1256 241.313 59.1256ZM248.256 59.1256C247.595 59.1256 247.025 58.9916 246.548 58.7238C246.074 58.4531 245.708 58.0708 245.452 57.5769C245.195 57.0803 245.067 56.4929 245.067 55.8148C245.067 55.1535 245.195 54.5731 245.452 54.0737C245.708 53.5742 246.07 53.1849 246.536 52.9059C247.004 52.6269 247.554 52.4874 248.185 52.4874C248.609 52.4874 249.004 52.5557 249.369 52.6925C249.738 52.8264 250.058 53.0287 250.332 53.2994C250.608 53.57 250.823 53.9104 250.976 54.3206C251.13 54.728 251.207 55.2051 251.207 55.7521V56.2418H245.778V55.1368H249.528C249.528 54.8801 249.472 54.6527 249.361 54.4545C249.249 54.2564 249.094 54.1016 248.896 53.99C248.701 53.8756 248.474 53.8184 248.214 53.8184C247.943 53.8184 247.703 53.8811 247.494 54.0067C247.288 54.1295 247.126 54.2955 247.009 54.5048C246.891 54.7113 246.831 54.9415 246.829 55.1954V56.2459C246.829 56.564 246.887 56.8389 247.004 57.0705C247.124 57.3021 247.293 57.4807 247.511 57.6062C247.729 57.7318 247.987 57.7946 248.285 57.7946C248.483 57.7946 248.665 57.7667 248.829 57.7109C248.994 57.6551 249.135 57.5714 249.252 57.4597C249.369 57.3481 249.459 57.2114 249.52 57.0496L251.169 57.1584C251.085 57.5546 250.914 57.9006 250.654 58.1964C250.397 58.4894 250.065 58.7182 249.658 58.8828C249.253 59.0446 248.786 59.1256 248.256 59.1256ZM252.37 61.4108V52.5711H254.128V53.6509H254.208C254.286 53.4779 254.399 53.3021 254.547 53.1236C254.697 52.9422 254.893 52.7915 255.133 52.6715C255.375 52.5488 255.677 52.4874 256.037 52.4874C256.506 52.4874 256.938 52.6101 257.334 52.8557C257.73 53.0984 258.047 53.4654 258.284 53.9565C258.522 54.4448 258.64 55.0573 258.64 55.7939C258.64 56.511 258.524 57.1165 258.293 57.6104C258.064 58.1015 257.751 58.474 257.355 58.7279C256.962 58.9791 256.521 59.1046 256.033 59.1046C255.687 59.1046 255.392 59.0474 255.149 58.933C254.909 58.8186 254.713 58.6749 254.559 58.5019C254.406 58.3261 254.289 58.1489 254.208 57.9704H254.153V61.4108H252.37ZM254.116 55.7855C254.116 56.1678 254.169 56.5013 254.275 56.7859C254.381 57.0705 254.534 57.2923 254.735 57.4514C254.936 57.6076 255.18 57.6858 255.468 57.6858C255.758 57.6858 256.003 57.6062 256.204 57.4472C256.405 57.2853 256.557 57.0621 256.66 56.7775C256.766 56.4901 256.819 56.1594 256.819 55.7855C256.819 55.4144 256.768 55.088 256.665 54.8061C256.561 54.5243 256.409 54.3039 256.208 54.1448C256.007 53.9858 255.761 53.9062 255.468 53.9062C255.177 53.9062 254.932 53.983 254.731 54.1365C254.533 54.2899 254.381 54.5076 254.275 54.7894C254.169 55.0712 254.116 55.4033 254.116 55.7855ZM263.248 52.5711V53.9104H259.377V52.5711H263.248ZM260.256 51.0308H262.039V57.0244C262.039 57.1891 262.064 57.3174 262.114 57.4095C262.164 57.4988 262.234 57.5616 262.323 57.5979C262.415 57.6341 262.521 57.6523 262.641 57.6523C262.725 57.6523 262.809 57.6453 262.893 57.6313C262.976 57.6146 263.04 57.602 263.085 57.5937L263.366 58.9205C263.276 58.9484 263.151 58.9805 262.989 59.0167C262.827 59.0558 262.63 59.0795 262.399 59.0879C261.969 59.1046 261.592 59.0474 261.269 58.9163C260.948 58.7851 260.698 58.5815 260.519 58.3052C260.341 58.029 260.253 57.6802 260.256 57.2588V51.0308ZM266.243 59.1214C265.833 59.1214 265.467 59.0502 265.146 58.9079C264.826 58.7628 264.572 58.5494 264.385 58.2675C264.201 57.9829 264.108 57.6286 264.108 57.2044C264.108 56.8473 264.174 56.5473 264.305 56.3045C264.436 56.0618 264.615 55.8665 264.841 55.7186C265.067 55.5707 265.324 55.4591 265.611 55.3837C265.901 55.3084 266.205 55.2554 266.524 55.2247C266.897 55.1856 267.199 55.1493 267.428 55.1159C267.656 55.0796 267.822 55.0266 267.926 54.9568C268.029 54.8871 268.081 54.7838 268.081 54.6471V54.622C268.081 54.3569 267.997 54.1518 267.829 54.0067C267.665 53.8616 267.43 53.7891 267.126 53.7891C266.805 53.7891 266.55 53.8602 266.36 54.0025C266.171 54.142 266.045 54.3178 265.984 54.5299L264.334 54.396C264.418 54.0053 264.583 53.6677 264.828 53.3831C265.074 53.0957 265.391 52.8752 265.778 52.7218C266.169 52.5655 266.621 52.4874 267.135 52.4874C267.492 52.4874 267.834 52.5292 268.16 52.6129C268.489 52.6966 268.781 52.8264 269.035 53.0022C269.292 53.178 269.494 53.404 269.642 53.6802C269.79 53.9537 269.864 54.2815 269.864 54.6638V59H268.173V58.1085H268.122C268.019 58.3094 267.881 58.4866 267.708 58.64C267.535 58.7907 267.327 58.9093 267.084 58.9958C266.842 59.0795 266.561 59.1214 266.243 59.1214ZM266.754 57.8908C267.016 57.8908 267.248 57.8392 267.449 57.736C267.649 57.6299 267.807 57.4876 267.921 57.3091C268.036 57.1305 268.093 56.9282 268.093 56.7022V56.0199C268.037 56.0562 267.961 56.0897 267.863 56.1204C267.768 56.1483 267.661 56.1748 267.541 56.1999C267.421 56.2222 267.301 56.2432 267.181 56.2627C267.061 56.2794 266.952 56.2948 266.854 56.3087C266.645 56.3394 266.462 56.3882 266.306 56.4552C266.15 56.5222 266.028 56.6129 265.942 56.7273C265.855 56.8389 265.812 56.9784 265.812 57.1458C265.812 57.3886 265.9 57.5741 266.076 57.7025C266.254 57.8281 266.48 57.8908 266.754 57.8908ZM273.03 55.2833V59H271.247V52.5711H272.946V53.7053H273.021C273.164 53.3314 273.402 53.0357 273.737 52.818C274.072 52.5976 274.478 52.4874 274.955 52.4874C275.402 52.4874 275.791 52.585 276.123 52.7804C276.455 52.9757 276.713 53.2547 276.897 53.6175C277.081 53.9774 277.174 54.4071 277.174 54.9066V59H275.39V55.2247C275.393 54.8312 275.293 54.5243 275.089 54.3039C274.885 54.0806 274.605 53.969 274.248 53.969C274.008 53.969 273.796 54.0207 273.612 54.1239C273.43 54.2271 273.288 54.3778 273.185 54.5759C273.084 54.7713 273.033 55.007 273.03 55.2833ZM281.484 59.1256C280.825 59.1256 280.259 58.986 279.784 58.707C279.313 58.4252 278.95 58.0345 278.696 57.5351C278.445 57.0356 278.319 56.4608 278.319 55.8107C278.319 55.1521 278.446 54.5745 278.7 54.0779C278.957 53.5784 279.321 53.1891 279.793 52.9101C280.264 52.6283 280.825 52.4874 281.475 52.4874C282.036 52.4874 282.527 52.5892 282.948 52.7929C283.37 52.9966 283.703 53.2826 283.949 53.6509C284.194 54.0193 284.33 54.4518 284.355 54.9484H282.672C282.625 54.6276 282.499 54.3694 282.296 54.1741C282.095 53.976 281.831 53.877 281.504 53.877C281.228 53.877 280.987 53.9523 280.78 54.103C280.577 54.2509 280.418 54.4671 280.303 54.7517C280.189 55.0363 280.132 55.3809 280.132 55.7855C280.132 56.1957 280.187 56.5445 280.299 56.8319C280.413 57.1193 280.574 57.3384 280.78 57.489C280.987 57.6397 281.228 57.7151 281.504 57.7151C281.708 57.7151 281.891 57.6732 282.053 57.5895C282.217 57.5058 282.353 57.3844 282.459 57.2253C282.568 57.0635 282.639 56.8696 282.672 56.6436H284.355C284.327 57.1347 284.193 57.5672 283.953 57.9411C283.716 58.3122 283.388 58.6024 282.969 58.8117C282.551 59.0209 282.056 59.1256 281.484 59.1256ZM288.426 59.1256C287.765 59.1256 287.196 58.9916 286.719 58.7238C286.244 58.4531 285.879 58.0708 285.622 57.5769C285.365 57.0803 285.237 56.4929 285.237 55.8148C285.237 55.1535 285.365 54.5731 285.622 54.0737C285.879 53.5742 286.24 53.1849 286.706 52.9059C287.175 52.6269 287.724 52.4874 288.355 52.4874C288.779 52.4874 289.174 52.5557 289.54 52.6925C289.908 52.8264 290.229 53.0287 290.502 53.2994C290.778 53.57 290.993 53.9104 291.147 54.3206C291.3 54.728 291.377 55.2051 291.377 55.7521V56.2418H285.948V55.1368H289.699C289.699 54.8801 289.643 54.6527 289.531 54.4545C289.42 54.2564 289.265 54.1016 289.067 53.99C288.871 53.8756 288.644 53.8184 288.384 53.8184C288.114 53.8184 287.874 53.8811 287.664 54.0067C287.458 54.1295 287.296 54.2955 287.179 54.5048C287.062 54.7113 287.002 54.9415 286.999 55.1954V56.2459C286.999 56.564 287.058 56.8389 287.175 57.0705C287.295 57.3021 287.464 57.4807 287.681 57.6062C287.899 57.7318 288.157 57.7946 288.456 57.7946C288.654 57.7946 288.835 57.7667 289 57.7109C289.164 57.6551 289.305 57.5714 289.422 57.4597C289.54 57.3481 289.629 57.2114 289.69 57.0496L291.339 57.1584C291.256 57.5546 291.084 57.9006 290.825 58.1964C290.568 58.4894 290.236 58.7182 289.828 58.8828C289.424 59.0446 288.956 59.1256 288.426 59.1256Z" fill="#6F6F6F"/>
<path d="M108.727 46H97.2713C95.4635 46 93.998 47.4635 93.998 49.2689V60.71C93.998 62.5153 95.4635 63.9789 97.2713 63.9789H108.727C110.535 63.9789 112.001 62.5153 112.001 60.71V49.2689C112.001 47.4635 110.535 46 108.727 46Z" fill="url(#paint0_radial_3_2136)"/>
<path d="M103.503 51.3818C103.503 51.968 102.193 52.4432 100.578 52.4432C98.9628 52.4432 97.6533 51.968 97.6533 51.3818M103.503 51.3818C103.503 50.796 102.193 50.3208 100.578 50.3208C98.9628 50.3208 97.6533 50.796 97.6533 51.3818M103.503 51.3818V52.1776M97.6533 51.3818V57.7487C97.6533 58.3349 98.9628 58.8102 100.578 58.8102M100.578 54.5652C100.488 54.5652 100.4 54.5639 100.312 54.5612C98.8215 54.5125 97.6533 54.0577 97.6533 53.5042M100.578 56.6877C98.9628 56.6877 97.6533 56.2125 97.6533 55.6267M108.289 54.8308C108.289 55.4166 106.98 55.8918 105.364 55.8918C103.749 55.8918 102.439 55.4166 102.439 54.8308M108.289 54.8308C108.289 54.2446 106.98 53.7694 105.364 53.7694C103.749 53.7694 102.439 54.2446 102.439 54.8308M108.289 54.8308V58.8102C108.289 59.3959 106.98 59.8712 105.364 59.8712C103.749 59.8712 102.439 59.3959 102.439 58.8102V54.8308M108.289 56.8205C108.289 57.4063 106.98 57.8815 105.364 57.8815C103.749 57.8815 102.439 57.4063 102.439 56.8205" stroke="white" stroke-width="0.43411" stroke-linecap="round" stroke-linejoin="round"/>
<path d="M108.727 110H97.2713C95.4635 110 93.998 111.464 93.998 113.269V124.71C93.998 126.515 95.4635 127.979 97.2713 127.979H108.727C110.535 127.979 112.001 126.515 112.001 124.71V113.269C112.001 111.464 110.535 110 108.727 110Z" fill="url(#paint1_radial_3_2136)"/>
<path d="M103.503 115.382C103.503 115.968 102.193 116.443 100.578 116.443C98.9628 116.443 97.6533 115.968 97.6533 115.382M103.503 115.382C103.503 114.796 102.193 114.321 100.578 114.321C98.9628 114.321 97.6533 114.796 97.6533 115.382M103.503 115.382V116.178M97.6533 115.382V121.749C97.6533 122.335 98.9628 122.81 100.578 122.81M100.578 118.565C100.488 118.565 100.4 118.564 100.312 118.561C98.8215 118.512 97.6533 118.058 97.6533 117.504M100.578 120.688C98.9628 120.688 97.6533 120.212 97.6533 119.627M108.289 118.831C108.289 119.417 106.98 119.892 105.364 119.892C103.749 119.892 102.439 119.417 102.439 118.831M108.289 118.831C108.289 118.245 106.98 117.769 105.364 117.769C103.749 117.769 102.439 118.245 102.439 118.831M108.289 118.831V122.81C108.289 123.396 106.98 123.871 105.364 123.871C103.749 123.871 102.439 123.396 102.439 122.81V118.831M108.289 120.821C108.289 121.406 106.98 121.882 105.364 121.882C103.749 121.882 102.439 121.406 102.439 120.821" stroke="white" stroke-width="0.43411" stroke-linecap="round" stroke-linejoin="round"/>
<path d="M108.729 142H97.2732C95.4655 142 94 143.464 94 145.269V156.71C94 158.515 95.4655 159.979 97.2732 159.979H108.729C110.537 159.979 112.003 158.515 112.003 156.71V145.269C112.003 143.464 110.537 142 108.729 142Z" fill="url(#paint2_radial_3_2136)"/>
<path d="M103.505 147.382C103.505 147.968 102.195 148.443 100.58 148.443C98.9647 148.443 97.6553 147.968 97.6553 147.382M103.505 147.382C103.505 146.796 102.195 146.321 100.58 146.321C98.9647 146.321 97.6553 146.796 97.6553 147.382M103.505 147.382V148.178M97.6553 147.382V153.749C97.6553 154.335 98.9647 154.81 100.58 154.81M100.58 150.565C100.49 150.565 100.402 150.564 100.314 150.561C98.8235 150.512 97.6553 150.058 97.6553 149.504M100.58 152.688C98.9647 152.688 97.6553 152.212 97.6553 151.627M108.291 150.831C108.291 151.417 106.981 151.892 105.366 151.892C103.751 151.892 102.441 151.417 102.441 150.831M108.291 150.831C108.291 150.245 106.981 149.769 105.366 149.769C103.751 149.769 102.441 150.245 102.441 150.831M108.291 150.831V154.81C108.291 155.396 106.981 155.871 105.366 155.871C103.751 155.871 102.441 155.396 102.441 154.81V150.831M108.291 152.821C108.291 153.406 106.981 153.882 105.366 153.882C103.751 153.882 102.441 153.406 102.441 152.821" stroke="white" stroke-width="0.43411" stroke-linecap="round" stroke-linejoin="round"/>
<path d="M108.727 78H97.2713C95.4635 78 93.998 79.4635 93.998 81.2689V92.71C93.998 94.5153 95.4635 95.9789 97.2713 95.9789H108.727C110.535 95.9789 112.001 94.5153 112.001 92.71V81.2689C112.001 79.4635 110.535 78 108.727 78Z" fill="url(#paint3_radial_3_2136)"/>
<path d="M103.503 83.3818C103.503 83.968 102.193 84.4432 100.578 84.4432C98.9628 84.4432 97.6533 83.968 97.6533 83.3818M103.503 83.3818C103.503 82.796 102.193 82.3208 100.578 82.3208C98.9628 82.3208 97.6533 82.796 97.6533 83.3818M103.503 83.3818V84.1776M97.6533 83.3818V89.7487C97.6533 90.3349 98.9628 90.8102 100.578 90.8102M100.578 86.5652C100.488 86.5652 100.4 86.5639 100.312 86.5612C98.8215 86.5125 97.6533 86.0577 97.6533 85.5042M100.578 88.6877C98.9628 88.6877 97.6533 88.2125 97.6533 87.6267M108.289 86.8308C108.289 87.4166 106.98 87.8918 105.364 87.8918C103.749 87.8918 102.439 87.4166 102.439 86.8308M108.289 86.8308C108.289 86.2446 106.98 85.7694 105.364 85.7694C103.749 85.7694 102.439 86.2446 102.439 86.8308M108.289 86.8308V90.8102C108.289 91.3959 106.98 91.8712 105.364 91.8712C103.749 91.8712 102.439 91.3959 102.439 90.8102V86.8308M108.289 88.8205C108.289 89.4063 106.98 89.8815 105.364 89.8815C103.749 89.8815 102.439 89.4063 102.439 88.8205" stroke="white" stroke-width="0.43411" stroke-linecap="round" stroke-linejoin="round"/>
</g>
<defs>
<radialGradient id="paint0_radial_3_2136" cx="0" cy="0" r="1" gradientUnits="userSpaceOnUse" gradientTransform="translate(94.5606 48.175) rotate(42.1825) scale(23.5356 99.1717)">
<stop stop-color="#00C4FF"/>
<stop offset="1" stop-color="#6C00EF"/>
</radialGradient>
<radialGradient id="paint1_radial_3_2136" cx="0" cy="0" r="1" gradientUnits="userSpaceOnUse" gradientTransform="translate(94.5606 112.175) rotate(42.1825) scale(23.5356 99.1717)">
<stop stop-color="#00C4FF"/>
<stop offset="1" stop-color="#6C00EF"/>
</radialGradient>
<radialGradient id="paint2_radial_3_2136" cx="0" cy="0" r="1" gradientUnits="userSpaceOnUse" gradientTransform="translate(94.5626 144.175) rotate(42.1825) scale(23.5356 99.1717)">
<stop stop-color="#00C4FF"/>
<stop offset="1" stop-color="#6C00EF"/>
</radialGradient>
<radialGradient id="paint3_radial_3_2136" cx="0" cy="0" r="1" gradientUnits="userSpaceOnUse" gradientTransform="translate(94.5606 80.175) rotate(42.1825) scale(23.5356 99.1717)">
<stop stop-color="#00C4FF"/>
<stop offset="1" stop-color="#6C00EF"/>
</radialGradient>
<clipPath id="clip0_3_2136">
<path d="M0 8C0 3.58172 3.58172 0 8 0H400C404.418 0 408 3.58172 408 8V187H0V8Z" fill="white"/>
</clipPath>
</defs>
</svg>
